<svg xmlns="http://www.w3.org/2000/svg" width="920" height="560" viewBox="0 0 920 560">
<rect width="100%" height="100%" fill="#ffffff"/>
<text x="460.0" y="30" text-anchor="middle" font-size="20" font-family="Arial" fill="#111827">Parallel Efficiency vs Total Cores</text>
<line x1="80" y1="490.00" x2="700" y2="490.00" stroke="#e5e7eb" stroke-width="1"/>
<text x="70" y="494.00" text-anchor="end" font-size="11" font-family="Arial" fill="#374151">0.00</text>
<line x1="80" y1="404.00" x2="700" y2="404.00" stroke="#e5e7eb" stroke-width="1"/>
<text x="70" y="408.00" text-anchor="end" font-size="11" font-family="Arial" fill="#374151">0.22</text>
<line x1="80" y1="318.00" x2="700" y2="318.00" stroke="#e5e7eb" stroke-width="1"/>
<text x="70" y="322.00" text-anchor="end" font-size="11" font-family="Arial" fill="#374151">0.43</text>
<line x1="80" y1="232.00" x2="700" y2="232.00" stroke="#e5e7eb" stroke-width="1"/>
<text x="70" y="236.00" text-anchor="end" font-size="11" font-family="Arial" fill="#374151">0.65</text>
<line x1="80" y1="146.00" x2="700" y2="146.00" stroke="#e5e7eb" stroke-width="1"/>
<text x="70" y="150.00" text-anchor="end" font-size="11" font-family="Arial" fill="#374151">0.86</text>
<line x1="80" y1="60.00" x2="700" y2="60.00" stroke="#e5e7eb" stroke-width="1"/>
<text x="70" y="64.00" text-anchor="end" font-size="11" font-family="Arial" fill="#374151">1.08</text>
<line x1="80.00" y1="60" x2="80.00" y2="490" stroke="#f3f4f6" stroke-width="1"/>
<text x="80.00" y="512" text-anchor="middle" font-size="11" font-family="Arial" fill="#374151">1</text>
<line x1="121.33" y1="60" x2="121.33" y2="490" stroke="#f3f4f6" stroke-width="1"/>
<text x="121.33" y="512" text-anchor="middle" font-size="11" font-family="Arial" fill="#374151">2</text>
<line x1="204.00" y1="60" x2="204.00" y2="490" stroke="#f3f4f6" stroke-width="1"/>
<text x="204.00" y="512" text-anchor="middle" font-size="11" font-family="Arial" fill="#374151">4</text>
<line x1="369.33" y1="60" x2="369.33" y2="490" stroke="#f3f4f6" stroke-width="1"/>
<text x="369.33" y="512" text-anchor="middle" font-size="11" font-family="Arial" fill="#374151">8</text>
<line x1="700.00" y1="60" x2="700.00" y2="490" stroke="#f3f4f6" stroke-width="1"/>
<text x="700.00" y="512" text-anchor="middle" font-size="11" font-family="Arial" fill="#374151">16</text>
<line x1="80" y1="490" x2="700" y2="490" stroke="#111827" stroke-width="1.5"/>
<line x1="80" y1="60" x2="80" y2="490" stroke="#111827" stroke-width="1.5"/>
<text x="390.0" y="540" text-anchor="middle" font-size="13" font-family="Arial" fill="#111827">Total Cores / Threads</text>
<text x="24" y="275.0" text-anchor="middle" font-size="13" font-family="Arial" fill="#111827" transform="rotate(-90 24 275.0)">Efficiency</text>
<polyline points="80.00,91.85 121.33,91.85 204.00,91.85 369.33,91.85 700.00,91.85" fill="none" stroke="#111827" stroke-width="1.5" stroke-dasharray="6 4"/>
<line x1="720" y1="70" x2="738" y2="70" stroke="#111827" stroke-width="1.5" stroke-dasharray="6 4"/>
<text x="746" y="74" font-size="11" font-family="Arial" fill="#111827">Ideal</text>
<polyline points="80.00,91.85 121.33,196.62 204.00,266.46 369.33,362.87 700.00,421.03" fill="none" stroke="#0f766e" stroke-width="2.5"/>
<circle cx="80.00" cy="91.85" r="3.2" fill="#0f766e"/>
<circle cx="121.33" cy="196.62" r="3.2" fill="#0f766e"/>
<circle cx="204.00" cy="266.46" r="3.2" fill="#0f766e"/>
<circle cx="369.33" cy="362.87" r="3.2" fill="#0f766e"/>
<circle cx="700.00" cy="421.03" r="3.2" fill="#0f766e"/>
<line x1="720" y1="90" x2="738" y2="90" stroke="#0f766e" stroke-width="2.5"/>
<text x="746" y="94" font-size="11" font-family="Arial" fill="#111827">Nx=250, Ny=100, 0.9M pts</text>
<polyline points="80.00,91.85 121.33,189.56 204.00,296.19 369.33,377.37 700.00,445.58" fill="none" stroke="#dc2626" stroke-width="2.5"/>
<circle cx="80.00" cy="91.85" r="3.2" fill="#dc2626"/>
<circle cx="121.33" cy="189.56" r="3.2" fill="#dc2626"/>
<circle cx="204.00" cy="296.19" r="3.2" fill="#dc2626"/>
<circle cx="369.33" cy="377.37" r="3.2" fill="#dc2626"/>
<circle cx="700.00" cy="445.58" r="3.2" fill="#dc2626"/>
<line x1="720" y1="110" x2="738" y2="110" stroke="#dc2626" stroke-width="2.5"/>
<text x="746" y="114" font-size="11" font-family="Arial" fill="#111827">Nx=250, Ny=100, 5M pts</text>
<polyline points="80.00,91.85 121.33,112.45 204.00,298.88 369.33,358.18 700.00,403.94" fill="none" stroke="#2563eb" stroke-width="2.5"/>
<circle cx="80.00" cy="91.85" r="3.2" fill="#2563eb"/>
<circle cx="121.33" cy="112.45" r="3.2" fill="#2563eb"/>
<circle cx="204.00" cy="298.88" r="3.2" fill="#2563eb"/>
<circle cx="369.33" cy="358.18" r="3.2" fill="#2563eb"/>
<circle cx="700.00" cy="403.94" r="3.2" fill="#2563eb"/>
<line x1="720" y1="130" x2="738" y2="130" stroke="#2563eb" stroke-width="2.5"/>
<text x="746" y="134" font-size="11" font-family="Arial" fill="#111827">Nx=500, Ny=200, 3.6M pts</text>
<polyline points="80.00,91.85 121.33,306.81 204.00,352.66 369.33,394.03 700.00,410.21" fill="none" stroke="#7c3aed" stroke-width="2.5"/>
<circle cx="80.00" cy="91.85" r="3.2" fill="#7c3aed"/>
<circle cx="121.33" cy="306.81" r="3.2" fill="#7c3aed"/>
<circle cx="204.00" cy="352.66" r="3.2" fill="#7c3aed"/>
<circle cx="369.33" cy="394.03" r="3.2" fill="#7c3aed"/>
<circle cx="700.00" cy="410.21" r="3.2" fill="#7c3aed"/>
<line x1="720" y1="150" x2="738" y2="150" stroke="#7c3aed" stroke-width="2.5"/>
<text x="746" y="154" font-size="11" font-family="Arial" fill="#111827">Nx=500, Ny=200, 20M pts</text>
<polyline points="80.00,91.85 121.33,170.09 204.00,319.84 369.33,354.24 700.00,402.83" fill="none" stroke="#ea580c" stroke-width="2.5"/>
<circle cx="80.00" cy="91.85" r="3.2" fill="#ea580c"/>
<circle cx="121.33" cy="170.09" r="3.2" fill="#ea580c"/>
<circle cx="204.00" cy="319.84" r="3.2" fill="#ea580c"/>
<circle cx="369.33" cy="354.24" r="3.2" fill="#ea580c"/>
<circle cx="700.00" cy="402.83" r="3.2" fill="#ea580c"/>
<line x1="720" y1="170" x2="738" y2="170" stroke="#ea580c" stroke-width="2.5"/>
<text x="746" y="174" font-size="11" font-family="Arial" fill="#111827">Nx=1000, Ny=400, 14M pts</text>
</svg>