<svg xmlns="http://www.w3.org/2000/svg" width="920" height="560" viewBox="0 0 920 560">
<rect width="100%" height="100%" fill="#ffffff"/>
<text x="460.0" y="30" text-anchor="middle" font-size="20" font-family="Arial" fill="#111827">Execution Time vs Total Cores</text>
<line x1="80" y1="490.00" x2="700" y2="490.00" stroke="#e5e7eb" stroke-width="1"/>
<text x="70" y="494.00" text-anchor="end" font-size="11" font-family="Arial" fill="#374151">0.00</text>
<line x1="80" y1="404.00" x2="700" y2="404.00" stroke="#e5e7eb" stroke-width="1"/>
<text x="70" y="408.00" text-anchor="end" font-size="11" font-family="Arial" fill="#374151">2.72</text>
<line x1="80" y1="318.00" x2="700" y2="318.00" stroke="#e5e7eb" stroke-width="1"/>
<text x="70" y="322.00" text-anchor="end" font-size="11" font-family="Arial" fill="#374151">5.44</text>
<line x1="80" y1="232.00" x2="700" y2="232.00" stroke="#e5e7eb" stroke-width="1"/>
<text x="70" y="236.00" text-anchor="end" font-size="11" font-family="Arial" fill="#374151">8.17</text>
<line x1="80" y1="146.00" x2="700" y2="146.00" stroke="#e5e7eb" stroke-width="1"/>
<text x="70" y="150.00" text-anchor="end" font-size="11" font-family="Arial" fill="#374151">10.89</text>
<line x1="80" y1="60.00" x2="700" y2="60.00" stroke="#e5e7eb" stroke-width="1"/>
<text x="70" y="64.00" text-anchor="end" font-size="11" font-family="Arial" fill="#374151">13.61</text>
<line x1="80.00" y1="60" x2="80.00" y2="490" stroke="#f3f4f6" stroke-width="1"/>
<text x="80.00" y="512" text-anchor="middle" font-size="11" font-family="Arial" fill="#374151">1</text>
<line x1="121.33" y1="60" x2="121.33" y2="490" stroke="#f3f4f6" stroke-width="1"/>
<text x="121.33" y="512" text-anchor="middle" font-size="11" font-family="Arial" fill="#374151">2</text>
<line x1="204.00" y1="60" x2="204.00" y2="490" stroke="#f3f4f6" stroke-width="1"/>
<text x="204.00" y="512" text-anchor="middle" font-size="11" font-family="Arial" fill="#374151">4</text>
<line x1="369.33" y1="60" x2="369.33" y2="490" stroke="#f3f4f6" stroke-width="1"/>
<text x="369.33" y="512" text-anchor="middle" font-size="11" font-family="Arial" fill="#374151">8</text>
<line x1="700.00" y1="60" x2="700.00" y2="490" stroke="#f3f4f6" stroke-width="1"/>
<text x="700.00" y="512" text-anchor="middle" font-size="11" font-family="Arial" fill="#374151">16</text>
<line x1="80" y1="490" x2="700" y2="490" stroke="#111827" stroke-width="1.5"/>
<line x1="80" y1="60" x2="80" y2="490" stroke="#111827" stroke-width="1.5"/>
<text x="390.0" y="540" text-anchor="middle" font-size="13" font-family="Arial" fill="#111827">Total Cores / Threads</text>
<text x="24" y="275.0" text-anchor="middle" font-size="13" font-family="Arial" fill="#111827" transform="rotate(-90 24 275.0)">Execution Time (s)</text>
<polyline points="80.00,477.59 121.33,481.58 204.00,484.47 369.33,485.14 700.00,485.52" fill="none" stroke="#0f766e" stroke-width="2.5"/>
<circle cx="80.00" cy="477.59" r="3.2" fill="#0f766e"/>
<circle cx="121.33" cy="481.58" r="3.2" fill="#0f766e"/>
<circle cx="204.00" cy="484.47" r="3.2" fill="#0f766e"/>
<circle cx="369.33" cy="485.14" r="3.2" fill="#0f766e"/>
<circle cx="700.00" cy="485.52" r="3.2" fill="#0f766e"/>
<line x1="720" y1="70" x2="738" y2="70" stroke="#0f766e" stroke-width="2.5"/>
<text x="746" y="74" font-size="11" font-family="Arial" fill="#111827">Nx=250, Ny=100, 0.9M pts</text>
<polyline points="80.00,422.27 121.33,445.12 204.00,455.21 369.33,460.07 700.00,452.06" fill="none" stroke="#dc2626" stroke-width="2.5"/>
<circle cx="80.00" cy="422.27" r="3.2" fill="#dc2626"/>
<circle cx="121.33" cy="445.12" r="3.2" fill="#dc2626"/>
<circle cx="204.00" cy="455.21" r="3.2" fill="#dc2626"/>
<circle cx="369.33" cy="460.07" r="3.2" fill="#dc2626"/>
<circle cx="700.00" cy="452.06" r="3.2" fill="#dc2626"/>
<line x1="720" y1="90" x2="738" y2="90" stroke="#dc2626" stroke-width="2.5"/>
<text x="746" y="94" font-size="11" font-family="Arial" fill="#111827">Nx=250, Ny=100, 5M pts</text>
<polyline points="80.00,390.92 121.33,437.76 204.00,438.40 369.33,452.59 700.00,461.35" fill="none" stroke="#2563eb" stroke-width="2.5"/>
<circle cx="80.00" cy="390.92" r="3.2" fill="#2563eb"/>
<circle cx="121.33" cy="437.76" r="3.2" fill="#2563eb"/>
<circle cx="204.00" cy="438.40" r="3.2" fill="#2563eb"/>
<circle cx="369.33" cy="452.59" r="3.2" fill="#2563eb"/>
<circle cx="700.00" cy="461.35" r="3.2" fill="#2563eb"/>
<line x1="720" y1="110" x2="738" y2="110" stroke="#2563eb" stroke-width="2.5"/>
<text x="746" y="114" font-size="11" font-family="Arial" fill="#111827">Nx=500, Ny=200, 3.6M pts</text>
<polyline points="80.00,123.62 121.33,91.85 204.00,224.47 369.33,300.00 700.00,375.74" fill="none" stroke="#7c3aed" stroke-width="2.5"/>
<circle cx="80.00" cy="123.62" r="3.2" fill="#7c3aed"/>
<circle cx="121.33" cy="91.85" r="3.2" fill="#7c3aed"/>
<circle cx="204.00" cy="224.47" r="3.2" fill="#7c3aed"/>
<circle cx="369.33" cy="300.00" r="3.2" fill="#7c3aed"/>
<circle cx="700.00" cy="375.74" r="3.2" fill="#7c3aed"/>
<line x1="720" y1="130" x2="738" y2="130" stroke="#7c3aed" stroke-width="2.5"/>
<text x="746" y="134" font-size="11" font-family="Arial" fill="#111827">Nx=500, Ny=200, 20M pts</text>
<polyline points="80.00,165.46 121.33,288.04 204.00,300.16 369.33,371.03 700.00,397.36" fill="none" stroke="#ea580c" stroke-width="2.5"/>
<circle cx="80.00" cy="165.46" r="3.2" fill="#ea580c"/>
<circle cx="121.33" cy="288.04" r="3.2" fill="#ea580c"/>
<circle cx="204.00" cy="300.16" r="3.2" fill="#ea580c"/>
<circle cx="369.33" cy="371.03" r="3.2" fill="#ea580c"/>
<circle cx="700.00" cy="397.36" r="3.2" fill="#ea580c"/>
<line x1="720" y1="150" x2="738" y2="150" stroke="#ea580c" stroke-width="2.5"/>
<text x="746" y="154" font-size="11" font-family="Arial" fill="#111827">Nx=1000, Ny=400, 14M pts</text>
</svg>